<svg xmlns="http://www.w3.org/2000/svg" width="45" height="300" viewBox="0 0 14.608 111.866">
  <g id="arrow" transform="translate(272.314 268.027) rotate(-90)">
    <path id="path366" d="M250.458-265.217c-3.5-.591-6.992-.956-10.487-1.241-1.748-.165-3.5-.245-5.244-.368l-5.244-.243q-5.244-.178-10.488.021-5.244.228-10.487.391l-20.976.617c-6.991.277-13.983.493-20.975.823v.411c6.992.328,13.984.545,20.975.823l20.976.617q5.242.168,10.487.389,5.246.2,10.488.021l5.244-.243c1.747-.121,3.5-.2,5.244-.367,3.495-.285,6.991-.652,10.487-1.241v-.411" fill="#4d4d4d"/>
    <path id="path368" d="M166.777-269.99l-.108-.113s-8.717,4.469-10.508,5.092c1.791.621,10.508,5.091,10.508,5.091l.108-.085-1.917-5.005,1.917-4.979" fill="#4d4d4d"/>
    <path id="path370" d="M255.8-268.007a5.878,5.878,0,0,0-1.8-1.48,6.755,6.755,0,0,0-3.877-.78c1.127.859,2.224,1.6,3.169,2.48A7.512,7.512,0,0,1,254.5-266.4a2.6,2.6,0,0,1,.473,1.375,2.533,2.533,0,0,1-.447,1.367,7.24,7.24,0,0,1-1.2,1.4c-.941.884-2.035,1.632-3.16,2.5a6.685,6.685,0,0,0,3.876-.8,5.776,5.776,0,0,0,1.8-1.509,4.956,4.956,0,0,0,.72-1.28,4.6,4.6,0,0,0,.224-.819,4.372,4.372,0,0,0,.063-.48c.015-.216.013-.157.016-.416a4.836,4.836,0,0,0-.336-1.7,5.07,5.07,0,0,0-.735-1.255" fill="#4d4d4d"/>
    <path id="path372" d="M257.846-272.314a18.2,18.2,0,0,1,.7,3.691c.119,1.2.164,2.4.169,3.609-.005,1.22-.048,2.392-.165,3.608a18.72,18.72,0,0,1-.687,3.7,5.824,5.824,0,0,0,2.119-3.163,13.457,13.457,0,0,0,.627-4.145,13.41,13.41,0,0,0-.637-4.141,5.8,5.8,0,0,0-2.125-3.155" fill="#4d4d4d"/>
    <path id="path382" d="M265.5-268.3a1.976,1.976,0,0,0-.2.025,1.945,1.945,0,0,0-.2-.025c-1.4,0-2.527,1.472-2.527,3.289s1.131,3.289,2.527,3.289a1.724,1.724,0,0,0,.2-.027,1.646,1.646,0,0,0,.2.027c1.395,0,2.527-1.472,2.527-3.289S266.9-268.3,265.5-268.3" fill="#4d4d4d"/>
  </g>
</svg>
