<?xml version="1.0" encoding="utf-8"?>
<!-- Generator: Adobe Illustrator 23.0.1, SVG Export Plug-In . SVG Version: 6.00 Build 0)  -->
<svg version="1.1"
	 id="svg20" xmlns:cc="http://creativecommons.org/ns#" xmlns:dc="http://purl.org/dc/elements/1.1/" xmlns:rdf="http://www.w3.org/1999/02/22-rdf-syntax-ns#" xmlns:svg="http://www.w3.org/2000/svg"
	 xmlns="http://www.w3.org/2000/svg" xmlns:xlink="http://www.w3.org/1999/xlink" x="0px" y="0px" viewBox="0 0 301.7 373.3"
	 style="enable-background:new 0 0 301.7 373.3;" xml:space="preserve">
<style type="text/css">
	.st0{fill:#FFFFFF;stroke:#1C1C1A;stroke-miterlimit:10;}
</style>
<g id="g18">
	<g>
		<path id="svg_1" class="st0" d="M89.8-112.3c0-0.1-0.1-0.2-0.2-0.2l-18.5-11.3c-0.1,0-0.1-0.1-0.2-0.1H33.1c-0.1,0-0.2,0-0.3,0.1
			L19-112.8c-0.1,0.1-0.1,0.1-0.1,0.2l-4.7,12.9L-0.8-58.9l-8.7,16.6l-17.8,18.5c0,0-0.1,0.1-0.1,0.1l-23.9,49.4l0,0l-13.1,33.4
			l-35.6,45c-0.1,0.1-0.1,0.3,0,0.5c0.1,0.2,0.2,0.2,0.4,0.2H-85l-8.3,14.6c-0.1,0.2-0.1,0.3,0,0.5c0.1,0.1,0.2,0.2,0.3,0.2h0.1
			l59.6-15.3c0,0,0.1,0,0.1,0l22-13.5l7.8,25.6c0.1,0.2,0.2,0.3,0.4,0.3c0.2,0,0.3-0.1,0.4-0.2l18-30.2l9.8,4.2
			c0.1,0.1,0.3,0.1,0.4,0l8-4.7l2.2,22.9l-15,7.9l-0.1,0l-7.3,5.8c-0.2,0.1-0.2,0.3-0.1,0.5c0.1,0.2,0.2,0.3,0.4,0.3h0.1l15.3-2.9
			l0.1,0l10.8-5l15.1,5.7h0.1l13.1,1.5c0.2,0,0.4-0.1,0.5-0.3c0.1-0.2,0-0.4-0.1-0.5l-12.4-10.2l0,0L45.6,105l2.4-27l11.1-6.5
			c0.1-0.1,0.1-0.1,0.2-0.2l9.4-24.4l0,0l8-20.6l11.6-13c0-0.1,0.1-0.1,0.1-0.2l8-32.7c0,0,0-0.1,0-0.1L92.7-59l7.2-22.4
			c0-0.1,0-0.2,0-0.3L89.8-112.3L89.8-112.3z M19.6-112.2l13.6-10.8h37.5l17.7,10.8l-41.9,17L19.6-112.2L19.6-112.2L19.6-112.2z
			 M38.5-55.9l-5.3-46.6l13,8.2c0.1,0.1,0.3,0.1,0.4,0l18.3-7.4l-8.2,43.5L56.5-58L38.5-55.9z M56.5-57.1l-11,21.3l-6.9-19.3
			L56.5-57.1z M65.9-101.7l19.4,10.2L83-72.8L57.8-58.7L65.9-101.7z M19.3-111.3l12.2,7.7l-16.3,3.4L19.3-111.3L19.3-111.3z
			 M15-99.2l17.3-3.7l5.2,46.4L15-85.3C15-85.3,15-99.2,15-99.2z M37.5-55.1c0.1,0.1,0.2,0.1,0.3,0.2v0.1L45-34.5
			c0.1,0.2,0.2,0.3,0.4,0.3l0,0c0.2,0,0.3-0.1,0.4-0.2L57.4-57c0,0,0-0.1,0-0.1l0.1-0.4L86.9-74l-16,29.2l-26.5,15L17.1-60l-5.4-28
			L37.5-55.1L37.5-55.1z M14.1-97v10.6l-2.7-3.4L14.1-97z M10.8-88l5.5,28.4c0,0.1,0.1,0.1,0.1,0.2l23.3,25.8l-5.1-1.4L11.2-53.5
			l-8-13.6L10.8-88L10.8-88z M-8.8-41.7c0,0,0.1-0.1,0.1-0.1L0-58.5c0,0,0,0,0-0.1l2.8-7.6L10.5-53c0,0,0.1,0.1,0.1,0.1l21.8,17.2
			l-28-7.8c-0.1,0-0.2,0-0.2,0l-15.3,4.2L-8.8-41.7L-8.8-41.7z M-26.5-23.2l14.3-14.9l16.6-4.5l36.5,10.1L44-29
			c0.1,0.1,0.2,0.1,0.3,0.1c0.1,0,0.2,0,0.2-0.1l3.7-2.1H54L20.9-4.3l-57.6,2L-26.5-23.2L-26.5-23.2z M22.2-4.1L55.4-31h8.9
			l3.5,13.3L58.6,0.5L22.2-4.1L22.2-4.1z M58.3,1.3l-3.3,6.6l-71.8,66.3l-47.2,7.1L21.2-3.4L58.3,1.3L58.3,1.3z M-63.6,59.7
			c0,0,0-0.1,0.1-0.1l13.1-33.4l13.4-27.5L20-3.3l-85,84.3l-1.4-17.7C-66.5,63.3-63.6,59.7-63.6,59.7z M-98.7,104l31.4-39.7
			l1.4,17.5L-84.5,104C-84.5,104-98.7,104-98.7,104z M-83.9,104.7l18.8-22.4l46.3-6.9l-72.9,43.1C-91.8,118.5-83.9,104.7-83.9,104.7
			z M-11.2,90.2L-33.6,104l-56.5,14.5L-16.5,75l0,0l0.1-0.1l70.2-64.7L30.9,55.5L-11.2,90.2L-11.2,90.2z M14.9,86l-17.7,29.7
			l-7.6-24.9l24.6-20.3L14.9,86L14.9,86L14.9,86z M44.6,105.1c0,0.2,0.1,0.3,0.2,0.4l10.9,7.3l11.2,9.2l-11.6-1.3l-15.2-5.8
			c-0.1,0-0.2,0-0.3,0L28.9,120l-13.5,2.6l5.9-4.7l15.2-8c0.2-0.1,0.3-0.3,0.2-0.4l-2.3-23.6l12.6-7.4L44.6,105.1L44.6,105.1z
			 M58.5,70.7L25.4,90.1L15.8,86L15,69.8l16.5-13.6l36.1-8.9L58.5,70.7z M32.1,55.1L58.7,2.3l9.1,44L32.1,55.1z M95.5-19.9
			l-7.9,32.5L76,25.7c0,0-0.1,0.1-0.1,0.1l-7.5,19.3l-9.1-44l9.3-18.4l15.2-13.8c0.1-0.1,0.1-0.1,0.1-0.2l8.1-25.5L95.5-19.9
			L95.5-19.9z M91.9-59.2L91.9-59.2l-8.7,27.5L68.6-18.5l-3.5-13.1c0-0.2-0.2-0.3-0.4-0.3H49.8l21.6-12.3c0.1,0,0.1-0.1,0.2-0.2
			l16.8-30.5l10.4-5.8C98.8-80.7,91.9-59.2,91.9-59.2z M84-73.4l2.2-18.3c0-0.2-0.1-0.4-0.2-0.4l-19.3-10.2l22.5-9.1L99-81.8
			L84-73.4L84-73.4z"/>
	</g>
</g>
</svg>
