<svg width="301.69" height="373.25" xmlns="http://www.w3.org/2000/svg">
 <defs>
  <style>.cls-1{fill:#fff;stroke:#1c1c1a;stroke-miterlimit:10;}</style>
 </defs>
 <title>Ativo 1</title>
 <g>
  <title>background</title>
  <rect fill="none" id="canvas_background" height="602" width="802" y="-1" x="-1"/>
 </g>
 <g>
  <title>Layer 1</title>
  <g id="Camada_2">
   <g id="Camada_1-2">
    <path id="svg_1" d="m285.86,17.89a0.65,0.65 0 0 0 -0.29,-0.36l-27.86,-16.93a0.59,0.59 0 0 0 -0.34,-0.1l-56.81,0a0.66,0.66 0 0 0 -0.41,0.14l-20.76,16.36a0.66,0.66 0 0 0 -0.21,0.29l-7.09,19.43l-22.4,61.38l-13.05,25l-26.7,27.79a0.66,0.66 0 0 0 -0.12,0.17l-36,74.3l0,0l-19.7,50.25l-53.48,67.66a0.68,0.68 0 0 0 -0.07,0.7a0.65,0.65 0 0 0 0.59,0.37l21.84,0l-12.55,22a0.67,0.67 0 0 0 0.05,0.73a0.68,0.68 0 0 0 0.52,0.26l0.17,0l89.59,-22.95a0.67,0.67 0 0 0 0.18,-0.07l33.14,-20.32l11.77,38.52a0.66,0.66 0 0 0 0.55,0.46a0.65,0.65 0 0 0 0.65,-0.32l27,-45.39l14.76,6.33a0.67,0.67 0 0 0 0.6,0l12,-7l3.34,34.41l-22.55,11.81l-0.1,0.07l-10.93,8.74a0.66,0.66 0 0 0 -0.19,0.8a0.67,0.67 0 0 0 0.6,0.38l0.13,0l22.94,-4.37l0.16,-0.05l16.17,-7.59l22.68,8.64l0.17,0l19.66,2.18a0.65,0.65 0 0 0 0.68,-0.4a0.63,0.63 0 0 0 -0.19,-0.76l-18.57,-15.3l0,0l-16.06,-10.71l3.63,-40.66l16.68,-9.78a0.7,0.7 0 0 0 0.28,-0.33l14.2,-36.67l0,0l12,-30.94l17.4,-19.57a0.76,0.76 0 0 0 0.15,-0.28l12,-49.17a0.55,0.55 0 0 0 0,-0.22l-5.45,-58.86l10.89,-33.74a0.64,0.64 0 0 0 0,-0.41l-15.29,-45.92zm-105.51,0.11l20.43,-16.18l56.4,0l26.58,16.18l-62.93,25.6l-40.49,-25.6l0.01,0zm28.37,84.58l-7.9,-70l19.59,12.38a0.68,0.68 0 0 0 0.61,0l27.53,-11.2l-12.35,65.45l-0.34,0.19l-27.14,3.18zm27.07,-1.79l-16.55,32.01l-10.34,-29l26.89,-3.01zm14.12,-67.08l29.15,15.4l-3.41,28.08l-37.95,21.18l12.21,-64.66zm-70,-14.39l18.37,11.58l-24.54,5.18l6.17,-16.76zm-6.5,18.24l26.02,-5.56l7.88,69.8l-33.94,-43.33l0.04,-20.91zm33.77,66.21a0.64,0.64 0 0 0 0.41,0.25l0,0.11l10.93,30.6a0.65,0.65 0 0 0 0.58,0.43l0,0a0.67,0.67 0 0 0 0.59,-0.36l17.48,-33.87a0.64,0.64 0 0 0 0.06,-0.18l0.12,-0.65l44.13,-24.68l-24.08,43.84l-39.81,22.59l-41,-45.36l-8.12,-42.1l38.71,49.38zm-35.09,-63l0,16.01l-4,-5.11l4,-10.9zm-4.94,13.55l8.21,42.63a0.66,0.66 0 0 0 0.16,0.31l35.03,38.74l-7.61,-2.12l-35.2,-27.7l-12.09,-20.52l11.5,-31.34zm-29.49,69.68a0.57,0.57 0 0 0 0.11,-0.16l13.11,-25.12a0.59,0.59 0 0 0 0,-0.08l4.14,-11.36l11.6,19.66a0.69,0.69 0 0 0 0.16,0.18l32.82,25.83l-42.06,-11.69a0.73,0.73 0 0 0 -0.36,0l-23,6.29l3.48,-3.55zm-26.66,27.77l21.49,-22.37l24.94,-6.82l54.81,15.22l4.79,5.29a0.68,0.68 0 0 0 0.49,0.22a0.68,0.68 0 0 0 0.33,-0.09l5.62,-3.19l8.53,0l-49.76,40.21l-86.56,3l15.32,-31.47zm73.18,28.66l50,-40.4l13.42,0l5.27,20l-13.87,27.37l-54.82,-6.97zm54.25,8.22l-5,9.95l-108,99.66l-71,10.6l128.33,-127.27l55.67,7.06zm-183.21,87.7a0.56,0.56 0 0 0 0.09,-0.17l19.69,-50.18l20.09,-41.41l85.81,-2.93l-127.84,126.68l-2.14,-26.55l4.3,-5.44zm-52.7,66.65l47.19,-59.71l2.12,26.29l-28.03,33.42l-21.28,0zm22.13,1l28.21,-33.63l69.6,-10.37l-109.66,64.79l11.85,-20.79zm109.42,-21.68l-33.75,20.69l-85,21.76l110.72,-65.37l0,0l0.11,-0.08l105.53,-97.32l-34.38,68.06l-63.23,52.26zm39.15,-6.32l-26.55,44.61l-11.46,-37.49l36.91,-30.54l1.17,23.42l-0.07,0zm44.7,28.68a0.64,0.64 0 0 0 0.3,0.61l16.36,10.91l16.83,13.86l-17.41,-1.9l-22.87,-8.71a0.72,0.72 0 0 0 -0.52,0l-16.31,7.62l-20.25,3.85l8.8,-7l22.89,-12a0.66,0.66 0 0 0 0.35,-0.65l-3.5,-35.53l19,-11.14l-3.67,40.08zm20.89,-51.68l-49.81,29.18l-14.39,-6.18l-1.22,-24.44l24.74,-20.47l54.34,-13.41l-13.66,35.32zm-39.75,-23.48l40.09,-79.39l13.62,66.14l-53.71,13.25zm95.33,-112.72l-11.95,48.9l-17.37,19.55a0.56,0.56 0 0 0 -0.12,0.2l-11.21,29l-13.63,-66.19l14,-27.67l22.85,-20.68a0.7,0.7 0 0 0 0.19,-0.29l12.12,-38.39l5.12,55.57zm-5.39,-59.15l0,0l-13.09,41.35l-22,19.91l-5.19,-19.71a0.65,0.65 0 0 0 -0.64,-0.49l-22.31,0l32.47,-18.43a0.57,0.57 0 0 0 0.25,-0.26l25.19,-45.86l15.7,-8.78l-10.38,32.27zm-11.92,-21.31l3.34,-27.57a0.65,0.65 0 0 0 -0.35,-0.67l-29.07,-15.36l33.83,-13.74l14.9,44.7l-22.65,12.64z m135.21,323.15l11.46,37.49l26.55,-44.64l0.07,-0.08l-1.17,-23.34l-36.91,30.57z m157.58,121.25l42.06,11.69l-32.82,-25.83a0.69,0.69 0 0 1 -0.16,-0.18l-11.6,-19.66l-4.14,11.36a0.59,0.59 0 0 1 0,0.08l-13.11,25.12a0.57,0.57 0 0 1 -0.11,0.16l-3.42,3.55l23,-6.29a0.73,0.73 0 0 1 0.3,0z m176.59,96.45l41,45.36l39.81,-22.59l24.08,-43.84l-44.13,24.68l-0.12,0.65a0.64,0.64 0 0 1 -0.06,0.18l-17.48,33.87a0.67,0.67 0 0 1 -0.59,0.36l0,0a0.65,0.65 0 0 1 -0.58,-0.43l-10.93,-30.6l0,-0.11a0.64,0.64 0 0 1 -0.41,-0.25l-38.71,-49.38l8.12,42.1z m180.87,181.61l-85.81,2.93l-20.06,41.46l-19.69,50.18a0.56,0.56 0 0 1 -0.09,0.17l-4.3,5.44l2.14,26.55l127.81,-126.73z m202.94,133.85l7.61,2.12l-35.07,-38.77a0.66,0.66 0 0 1 -0.16,-0.31l-8.21,-42.63l-11.46,31.4l12.09,20.49l35.2,27.7z m206.13,351.27a0.66,0.66 0 0 1 -0.35,0.65l-22.89,12l-8.8,7l20.25,-3.85l16.31,-7.62a0.72,0.72 0 0 1 0.52,0l22.83,8.71l17.37,1.93l-16.83,-13.86l-16.36,-10.91a0.64,0.64 0 0 1 -0.3,-0.61l3.69,-40.11l-19,11.14l3.56,35.53z m231.68,202l-105.52,97.4l-0.11,0.08l0,0l-110.72,65.35l85,-21.76l33.75,-20.69l63.23,-52.32l34.37,-68.06z m232,140l-8.6,0l-5.62,3.19a0.68,0.68 0 0 1 -0.33,0.09a0.68,0.68 0 0 1 -0.49,-0.22l-4.79,-5.29l-54.77,-15.19l-24.94,6.82l-21.46,22.37l-15.28,31.43l86.56,-3l49.72,-40.2z m236.2,99.21l12.35,-65.48l-27.55,11.2a0.68,0.68 0 0 1 -0.61,0l-19.57,-12.43l7.9,70l27.14,-3.13l0.34,-0.16z m251,32.74l29.07,15.36a0.65,0.65 0 0 1 0.35,0.67l-3.34,27.57l22.65,-12.67l-14.9,-44.67l-33.83,13.74z m258.49,120a0.57,0.57 0 0 1 -0.25,0.26l-32.47,18.43l22.31,0a0.65,0.65 0 0 1 0.64,0.49l5.19,19.71l22,-19.91l13.09,-41.33l0,0l10.41,-32.27l-15.7,8.78l-25.22,45.84z m277.12,139.57a0.7,0.7 0 0 1 -0.19,0.29l-22.85,20.68l-14,27.67l13.63,66.19l11.21,-29a0.56,0.56 0 0 1 0.12,-0.2l17.37,-19.55l11.95,-48.9l-5.15,-55.62l-12.09,38.44z" class="cls-1"/>
   </g>
  </g>
 </g>
</svg>