<?xml version="1.0" encoding="utf-8"?>
<!-- Generator: Adobe Illustrator 23.0.1, SVG Export Plug-In . SVG Version: 6.00 Build 0)  -->
<svg version="1.1" id="Camada_1" xmlns="http://www.w3.org/2000/svg" xmlns:xlink="http://www.w3.org/1999/xlink" x="0px" y="0px"
	 viewBox="0 0 700 400" style="enable-background:new 0 0 700 400;" xml:space="preserve">
<style type="text/css">
	.st0{fill:#DC0000;}
	.st1{fill:#444444;}
	.st2{font-family:'MyriadPro-Regular';}
	.st3{font-size:137.993px;}
	.st4{fill:none;}
	.st5{font-family:'Montserrat-Medium';}
	.st6{font-size:56.808px;}
	.st7{font-family:'Montserrat-Light';}
	.st8{font-size:28.2143px;}
	.st9{letter-spacing:3;}
</style>
<g id="XMLID_15892_">
	<g id="XMLID_11794_">
		<path id="XMLID_11796_" class="st0" d="M361.66,174.67c-4.85-3.57-9.53-7.23-13.55-11.91c-15.28-17.83-20.86-37.98-15.74-60.97
			c0.23-1.03,0.38-1.75-0.7-2.43c-1.17-0.74-1.71-0.07-2.4,0.66c-12.78,13.46-16.55,28.89-10.18,46.54
			c3.09,8.55,8.44,15.71,13.95,22.77c-0.15,0.14-0.29,0.3-0.43,0.46c-7.96-3.63-14.7-8.56-18.95-16.11
			c-0.61-1.08-1.16-2.21-1.66-3.4c-0.51-1.21-0.43-3.03-2.45-2.68c-2.13,0.37-1.53,2.26-1.6,3.61c-0.29,5.74,2.58,10.24,6.04,14.39
			c7.35,8.81,16.71,15.14,26.38,21.07c7.79,4.77,14.82,10.45,20.58,17.57c5.34,6.6,9.23,13.85,9.1,22.65
			c-0.02,1.21,0.47,1.8,1.51,2.04c1.37,0.32,1.48-0.91,1.91-1.69C383.29,209.02,378.3,186.94,361.66,174.67z"/>
		<path id="XMLID_11795_" class="st0" d="M377.01,177.61c0.76,0.5,1.53,1.29,2.45,0.12c0.98-1.23,0.17-1.9-0.66-2.63
			c-0.64-0.57-1.24-1.18-1.83-1.8c-7.6-8-11.84-17.53-11.67-28.56c0.13-8.4,4.28-20.83,10.69-29.59c2.73-3.73,4.82-7.79,6.06-12.25
			c2.34-8.45,1.32-16.44-3.34-24.42c-2.07,13.81-6.81,25.87-15.89,36.38c-0.23-0.68-0.36-0.88-0.35-1.07
			c0.02-0.31,0.1-0.64,0.21-0.93c8.87-22.2,4.46-42.81-7.52-62.49c-0.48-0.79-0.6-2.52-2.45-1.55c-1.75,0.92-0.66,1.95-0.25,2.91
			c5.83,13.7,5.04,27.04-3.39,39.26c-12.5,18.1-13.27,42.19,0.97,61.9C357.36,162.98,366.68,170.83,377.01,177.61z"/>
	</g>
</g>
<text transform="matrix(1 0 0 1 248.2312 189.9278)" class="st1 st2 st3">{</text>
<text transform="matrix(1 0 0 1 405.1108 189.9276)" class="st1 st2 st3">}</text>
<polygon class="st4" points="546.05,119.21 550.63,119.21 550.63,119.21 546.05,119.21 "/>
<polygon class="st4" points="474.95,128.84 479.07,128.84 479.07,128.84 474.95,128.84 "/>
<g>
	<text transform="matrix(1 0 0 1 165.4534 294.5395)" class="st1 st5 st6">Leo Valverde</text>
</g>
<g>
	<text transform="matrix(1 0 0 1 169.7779 346.2795)" class="st1 st7 st8 st9">Front-End Developer</text>
</g>
</svg>
