<?xml version="1.0" encoding="utf-8"?>
<!-- Generator: Adobe Illustrator 23.0.1, SVG Export Plug-In . SVG Version: 6.00 Build 0)  -->
<svg version="1.1"
	 id="svg20" x="0px" y="0px" viewBox="0 0 301.7 373.3"
	 style="enable-background:new 0 0 301.7 373.3;" xml:space="preserve">
<style type="text/css">
	.st0{fill:#FFFFFF;stroke:#1C1C1A;stroke-miterlimit:10;}
</style>
<g id="g18">
	<g>
		<path class="st0" d="M54.4-12.9L42.1-42.6l0,0c0-0.1-0.1-0.2-0.2-0.2l-19.3-9.9c-0.1,0-0.2-0.1-0.2-0.1l-37.7,2.6
			c-0.1,0-0.2,0-0.3,0.1l-13,11.8c-0.1,0.1-0.1,0.1-0.1,0.2l-3.8,13.2l-12,41.8L-52,34.1l-0.3,0.3c-0.2,0.9-0.8,1.8-1.2,2.6
			c-0.1,0.3-0.3,0.5-0.5,0.8c-0.1,0.1-0.2,0.3-0.2,0.4c-0.1,0.1-0.1,0.2-0.2,0.3l16.1-5.7l37.1,7.5l3.4,3.3c0.1,0.1,0.2,0.1,0.3,0.1
			c0.1,0,0.2,0,0.2-0.1l3.6-2.4l3.9-0.3c0.5-0.1,1-0.1,1.4-0.1c0.6,0,1.3-0.1,1.9-0.1c0,0,0,0,0,0l8.7-0.6l3.9,11.6
			c0.2,0.3,0.4,0.6,0.6,0.9c0.1,0,0.3,0.1,0.4,0.1c0.5-0.1,1-0.2,1.5-0.5l13-13.6c0.1-0.1,0.1-0.1,0.1-0.2l5.6-23.3c0,0,0-0.1,0-0.1
			c0,0,0-0.1,0-0.1c0,0,0,0,0,0l-0.1-1c0-0.3,0.2-0.4,0.4-0.5c0-0.1,0.1-0.2,0.1-0.3l0.1-0.6l0,0.1c0.2-0.8,0.2-1.6,0.5-2.4l0,0
			l5.7-22.9C54.4-12.7,54.4-12.8,54.4-12.9z M-27.9-37.6l12.8-11.7L22.3-52l18.4,9.5L0.1-22.5L-27.9-37.6L-27.9-37.6z M-5.2,17.2
			l-8.5-46.1l13.6,7.3c0.1,0.1,0.3,0,0.4,0l17.7-8.7l-5.1,44l-0.2,0.1L-5.2,17.2z M12.7,14.7l-9.5,22L-5,18L12.7,14.7z M19-30.5
			L39-21.6l-1,18.8L13.9,13L19-30.5z M-28.2-36.7l12.7,6.8l-16,4.6L-28.2-36.7z M-31.6-24.3l17-4.9l8.5,45.9l-24.5-27.2L-31.6-24.3z
			 M-32.3-22.1l0.7,10.6l-2.9-3.2L-32.3-22.1z M-38.2,31.9c-0.1,0-0.2,0-0.2,0l-15,5.2l2.1-2.5c0,0,0.1-0.1,0.1-0.1l7.5-17.3
			c0,0,0,0,0-0.1l2.2-7.7l8.6,12.5c0,0,0.1,0.1,0.1,0.1l23,15.6L-38.2,31.9z M-7.5,38.2l-24.6-16.7l-9-13.1l6.2-21.3l7.4,27.9
			c0,0.1,0.1,0.1,0.1,0.2l25,24.1L-7.5,38.2z M2.6,42.8l-29.3-28.2l-7.4-27.6l28,31c0.1,0.1,0.2,0.1,0.3,0.1l0,0.1L2.8,38
			c0.1,0.2,0.2,0.3,0.4,0.3c0.2,0,0.3-0.1,0.4-0.3l10-23.3c0,0,0-0.1,0-0.1l0-0.4L41.9-4.3L27.9,26L2.6,42.8z M47.9,10.1l-6.8,28
			L27.5,52.4l-4.4-12.8c-0.1-0.2-0.2-0.3-0.4-0.3l-14.8,1l20.7-13.7c0.1,0,0.1-0.1,0.2-0.2L43.3-5.2l10-6.6
			C53.3-11.7,47.9,10.1,47.9,10.1z M39-3.4l0.9-18.4c0-0.2-0.1-0.4-0.3-0.4l-20-8.8l21.8-10.7l12,29L39-3.4z"/>
	</g>
</g>
</svg>
